<svg width="27" height="29" viewBox="0 0 27 29" fill="none" xmlns="http://www.w3.org/2000/svg">
<path d="M11.9602 0C12.2529 0.165777 12.4172 0.389348 12.4142 0.752841C12.3944 3.35432 13.3525 5.57102 15.0826 7.4843C16.0901 8.59911 17.1692 9.64777 18.1228 10.8128C19.8665 12.9428 20.7616 15.383 20.8323 18.126C20.8414 18.4902 20.9433 18.5952 21.3053 18.5815C22.049 18.5526 22.795 18.5693 23.5402 18.5739C25.3098 18.5838 26.5911 19.7602 26.6991 21.529C26.7516 22.3845 26.7501 23.2483 26.7022 24.1046C26.6025 25.8665 25.3181 27.0589 23.5471 27.0658C21.3494 27.0741 19.1517 27.068 16.954 27.068C16.7905 27.068 16.6323 27.062 16.4848 27.1677C14.8202 28.3616 12.9419 28.7981 10.9176 28.7981C7.38685 28.7988 4.53062 27.4087 2.32001 24.6871C1.47972 23.6498 0.97554 22.4415 0.80444 21.1062C0.793794 21.0217 0.761095 20.9404 0.738281 20.8575C0.738281 20.4278 0.738281 19.9982 0.738281 19.5678C0.757292 19.5214 0.78771 19.4758 0.793033 19.4279C0.960331 17.9495 1.58998 16.6515 2.34738 15.4013C2.88958 14.5055 3.47969 13.6386 3.95268 12.701C4.55952 11.4979 4.84316 10.2379 4.63708 8.89036C4.5983 8.63485 4.68803 8.43714 4.90172 8.3109C5.10856 8.18923 5.31312 8.24399 5.50323 8.37706C7.19522 9.55271 7.98228 11.1162 7.60054 13.1998C7.44617 14.0431 7.23248 14.8766 7.18686 15.7389C7.15188 16.3937 7.4378 16.856 7.99597 17.1632C9.33511 17.8994 10.9115 17.2142 11.2841 15.7344C11.5495 14.6804 11.3184 13.6819 10.9282 12.704C10.4651 11.542 9.8545 10.45 9.32523 9.31925C8.0492 6.59154 8.35566 4.05469 10.1997 1.68743C10.5495 1.23877 10.9199 0.809114 11.31 0.394671C11.4583 0.237259 11.6187 0.103421 11.8081 0.000760445C11.859 0 11.91 0 11.9602 0ZM5.8211 10.0614C5.75037 10.4972 5.70399 10.8804 5.62338 11.2569C5.34658 12.5375 4.6964 13.6492 4.01884 14.7473C3.48881 15.6066 2.93597 16.453 2.50632 17.3701C1.97781 18.4986 1.67515 19.672 1.84245 20.9305C2.08275 22.7419 3.02494 24.1563 4.36941 25.3274C6.815 27.4589 9.68112 28.0597 12.821 27.5798C13.3434 27.5 13.8491 27.3053 14.4012 27.0201C14.2567 27.0064 14.2073 27.0004 14.1571 26.9973C12.624 26.903 11.4689 25.8627 11.256 24.3434C11.1404 23.516 11.2172 22.678 11.2142 21.8445C11.2073 19.8111 12.4894 18.5351 14.5252 18.532C16.1419 18.5298 17.7593 18.5229 19.376 18.5389C19.6871 18.5419 19.7829 18.4697 19.7699 18.145C19.6711 15.6956 18.9137 13.4971 17.3624 11.5808C16.4225 10.4204 15.3487 9.38237 14.3594 8.26756C13.2415 7.00826 12.3282 5.62881 11.8256 4.00374C11.6187 3.33379 11.4986 2.64483 11.3974 1.92773C11.3336 1.97031 11.2971 1.984 11.275 2.01062C9.74499 3.86382 9.12295 5.89193 10.037 8.2379C10.4461 9.28732 10.9906 10.2698 11.4651 11.2865C12.0469 12.5321 12.4978 13.8036 12.4172 15.2157C12.297 17.3229 10.7579 18.7092 8.70546 18.5032C7.40662 18.3724 5.85456 17.3876 6.15493 15.3488C6.28573 14.4614 6.50854 13.5922 6.615 12.7017C6.73287 11.7268 6.52223 10.8546 5.8211 10.0614ZM18.9418 25.9639C20.4954 25.9639 22.0482 25.9738 23.6018 25.9608C24.7714 25.951 25.5942 25.1776 25.6474 24.0164C25.6839 23.2095 25.6824 22.3989 25.6482 21.5921C25.5988 20.4301 24.7661 19.64 23.6125 19.6377C20.5182 19.6309 17.4247 19.6309 14.3305 19.6377C13.1297 19.64 12.2902 20.4887 12.275 21.6947C12.2666 22.3769 12.2727 23.059 12.2735 23.7411C12.2758 25.1631 13.0788 25.9624 14.5092 25.9646C15.9867 25.9654 17.4643 25.9639 18.9418 25.9639Z" fill="#1F1F1F"/>
<path d="M23.0263 23.3312C23.0263 23.684 23.0331 24.0376 23.0248 24.3905C23.0141 24.8209 22.8187 25.0179 22.3989 25.027C22.0582 25.0346 21.7176 25.0361 21.3776 25.0262C20.7016 25.0065 20.2864 24.5677 20.2575 23.8559C20.2248 23.0574 20.57 22.5822 21.2529 22.4947C21.402 22.4757 21.5548 22.4863 21.7054 22.4734C21.8065 22.465 21.9563 22.5198 21.9571 22.3358C21.9571 22.189 21.8704 22.094 21.7244 22.0879C21.4476 22.0772 21.1693 22.0856 20.8925 22.0795C20.4963 22.0704 20.259 21.8597 20.2651 21.5305C20.2712 21.2035 20.5069 21.008 20.9122 21.0012C21.1769 20.9974 21.4423 20.9966 21.7069 21.0012C22.4719 21.0141 22.9867 21.5054 23.0217 22.2711C23.0377 22.6232 23.0248 22.9776 23.0248 23.3304C23.0248 23.3312 23.0255 23.3312 23.0263 23.3312ZM21.681 23.5122C21.529 23.519 21.3579 23.4666 21.3655 23.7152C21.3731 23.9532 21.5449 23.8772 21.662 23.878C21.7928 23.8787 21.9784 23.9525 21.9837 23.6977C21.9906 23.4331 21.7959 23.538 21.681 23.5122Z" fill="#1F1F1F"/>
<path d="M15.2245 21.6379C15.2945 21.5512 15.3652 21.4653 15.4336 21.3771C15.6945 21.0417 16.004 20.9649 16.2724 21.1695C16.5226 21.3603 16.5241 21.644 16.2739 22.0052C16.1515 22.1816 16.0336 22.3618 15.8975 22.5269C15.7804 22.6683 15.7911 22.7801 15.8937 22.9253C16.1561 23.2957 16.407 23.6751 16.6572 24.0538C16.8709 24.3778 16.8351 24.666 16.5682 24.847C16.3082 25.0234 16.0215 24.9458 15.7911 24.6341C15.604 24.3816 15.4207 24.1261 15.2344 23.8728C15.2298 23.866 15.2124 23.8683 15.1477 23.8576C15.1477 24.0447 15.1561 24.2272 15.1462 24.4082C15.1272 24.7534 14.9143 24.9694 14.6002 24.9542C14.2717 24.939 14.0785 24.7527 14.0755 24.4265C14.0664 23.3025 14.0656 22.1786 14.0755 21.0546C14.0785 20.7185 14.3226 20.4873 14.6276 20.5132C14.9477 20.5398 15.134 20.7216 15.147 21.0524C15.1538 21.2387 15.1485 21.425 15.1485 21.612C15.1728 21.6212 15.1987 21.6295 15.2245 21.6379Z" fill="#1F1F1F"/>
<path d="M17.192 22.9223C17.192 22.72 17.1828 22.5177 17.1935 22.3162C17.2285 21.6379 17.7091 21.1025 18.3798 20.9877C18.7182 20.9299 19.0604 20.9451 19.3995 20.9657C19.7471 20.9862 19.9463 21.2128 19.9364 21.5261C19.9265 21.8333 19.7136 22.0371 19.3623 22.0554C19.1227 22.0683 18.8824 22.0584 18.6429 22.0607C18.3821 22.0638 18.2467 22.1892 18.2497 22.4584C18.2535 22.774 18.2535 23.0896 18.2497 23.4052C18.2459 23.7094 18.4018 23.8409 18.6946 23.8379C18.9091 23.8356 19.1243 23.8303 19.3379 23.8417C19.7174 23.8614 19.9357 24.0645 19.9372 24.3846C19.9387 24.7071 19.7182 24.9215 19.3471 24.9375C19.0954 24.9489 18.8414 24.9496 18.5897 24.9367C17.776 24.8949 17.2072 24.304 17.1889 23.4896C17.1851 23.3002 17.1882 23.1109 17.1882 22.9215C17.1904 22.9223 17.1912 22.9223 17.192 22.9223Z" fill="#1F1F1F"/>
<path d="M23.3459 22.7483C23.3459 22.2312 23.3413 21.7133 23.3474 21.1962C23.352 20.7863 23.5459 20.5536 23.8736 20.5415C24.2143 20.5293 24.4402 20.7681 24.4447 21.1954C24.4546 22.2304 24.4531 23.2654 24.4455 24.2996C24.4424 24.7315 24.228 24.9619 23.8782 24.9513C23.5489 24.9406 23.3527 24.7087 23.3474 24.3003C23.3413 23.7832 23.3459 23.2654 23.3459 22.7483Z" fill="#1F1F1F"/>
</svg>
