<svg width="20" height="28" viewBox="0 0 20 28" fill="none" xmlns="http://www.w3.org/2000/svg">
<path d="M18.2861 0.861816C18.3146 0.877471 18.3397 0.898343 18.3699 0.90878C18.8096 1.06358 19.0797 1.3732 19.1301 1.85326C19.1838 2.35595 18.9774 2.73165 18.5562 2.98212C17.6988 3.49176 16.843 4.00836 15.9805 4.5093C15.801 4.61367 15.7205 4.72673 15.7305 4.94763C15.749 5.37378 15.7507 5.8034 15.7305 6.22955C15.7188 6.47481 15.806 6.54786 16.0225 6.51655C16.1114 6.50438 16.2037 6.51307 16.2943 6.51481C16.8313 6.52177 17.1383 6.83834 17.1383 7.39494C17.14 8.96039 17.1383 10.5258 17.14 12.0895C17.14 13.5698 17.14 15.0482 17.14 16.5284C17.14 16.638 17.1517 16.7511 17.1064 16.8572C17.0309 17.0363 16.8984 17.1198 16.7121 17.0955C16.5376 17.0711 16.4302 16.9615 16.4034 16.7789C16.3916 16.6954 16.3967 16.6085 16.3967 16.5232C16.3967 14.6169 16.3933 12.7088 16.4017 10.8024C16.4034 10.5798 16.3514 10.5154 16.1299 10.5171C13.4233 10.5258 10.7168 10.5258 8.01191 10.5171C7.80049 10.5171 7.73337 10.5624 7.73505 10.7954C7.74847 11.933 7.74512 13.0705 7.73673 14.2081C7.73505 14.389 7.79378 14.4534 7.95318 14.5021C10.6983 15.3509 12.5038 17.9113 12.435 20.8699C12.4048 22.1971 11.9971 23.399 11.247 24.4774C11.2034 24.54 11.1614 24.6009 11.1212 24.6601C11.1547 24.7488 11.2218 24.714 11.2722 24.7157C12.9065 24.7175 14.5392 24.714 16.1735 24.7227C16.3698 24.7244 16.4017 24.6531 16.4017 24.4722C16.3967 22.5658 16.3983 20.6577 16.3983 18.7514C16.3983 18.6661 16.395 18.5792 16.4017 18.4957C16.4218 18.2887 16.5326 18.1652 16.7339 18.1478C16.947 18.1287 17.0779 18.247 17.1283 18.4557C17.145 18.5287 17.1417 18.6087 17.1417 18.6853C17.1417 20.8491 17.1434 23.0129 17.1417 25.1767C17.14 26.3647 16.3967 27.1387 15.254 27.1387C13.1247 27.1404 10.997 27.1369 8.86767 27.1404C8.57403 27.1404 8.29045 27.1004 8.02869 26.963C7.91291 26.9021 7.8072 26.923 7.6931 26.9526C4.96809 27.6379 2.18268 26.3786 0.793334 23.8356C-1.29069 20.0211 0.93596 15.1091 5.08387 14.3507C5.64096 14.2481 6.19972 14.2203 6.75848 14.2707C6.95983 14.2881 7.00346 14.2446 7.00346 14.0394C6.99675 11.8512 6.99842 9.66136 7.0001 7.47147C7.0001 6.80877 7.28032 6.51655 7.91794 6.51655C8.87438 6.51655 9.8325 6.51655 10.7889 6.51655C10.8712 6.51655 10.9567 6.51307 11.0356 6.53221C11.2269 6.57917 11.3393 6.71484 11.3309 6.91835C11.3208 7.13229 11.2017 7.27318 10.9869 7.28014C10.6899 7.29058 10.3929 7.28536 10.0959 7.28536C9.38616 7.28536 8.67638 7.29058 7.96661 7.28188C7.80049 7.28014 7.73505 7.31667 7.7384 7.50626C7.74847 8.18114 7.74679 8.85776 7.74008 9.53264C7.7384 9.68919 7.76693 9.75702 7.93976 9.75702C9.75531 9.75006 11.5692 9.75181 13.3847 9.75528C13.5374 9.75528 13.5811 9.70484 13.5794 9.55004C13.5727 8.86646 13.571 8.18114 13.5794 7.49756C13.5811 7.32363 13.524 7.27492 13.3663 7.28362C13.1532 7.29579 12.9367 7.29058 12.7236 7.28362C12.4786 7.27666 12.3394 7.13751 12.3343 6.91487C12.3293 6.69397 12.4686 6.53395 12.7052 6.52177C12.935 6.50785 13.1666 6.50959 13.3982 6.52003C13.5408 6.52525 13.5811 6.47133 13.5794 6.32696C13.5727 5.7634 13.576 5.1981 13.5777 4.6328C13.5794 3.79094 13.9385 3.15432 14.6365 2.73339C15.5761 2.16635 16.5225 1.60801 17.4672 1.04967C17.588 0.978355 17.7155 0.924434 17.8414 0.861816C17.9891 0.861816 18.1367 0.861816 18.2861 0.861816ZM0.746351 20.6856C0.744673 23.8199 3.19617 26.3647 6.2165 26.3664C9.23179 26.3681 11.695 23.8182 11.6984 20.6908C11.7001 17.5616 9.24689 15.0187 6.22153 15.0152C3.19449 15.0152 0.748029 17.5477 0.746351 20.6856ZM9.25024 26.3246C9.28045 26.3473 9.29219 26.3629 9.30394 26.3629C11.3477 26.3647 13.3914 26.3716 15.4352 26.3594C15.8379 26.3577 16.1265 26.1159 16.3044 25.7385C16.3816 25.575 16.3933 25.4828 16.1584 25.4845C14.2875 25.4915 12.4166 25.488 10.5456 25.4897C10.4735 25.4897 10.3929 25.4706 10.3308 25.5263C10.0003 25.8289 9.6345 26.0829 9.25024 26.3246ZM14.321 5.41204C14.3194 5.41204 14.3194 5.41204 14.321 5.41204C14.3194 5.63468 14.3194 5.85559 14.3194 6.07823C14.3194 6.52003 14.3194 6.50785 14.7506 6.52003C14.9486 6.52525 15.0023 6.46089 14.9973 6.26086C14.9855 5.73209 14.9973 5.20158 14.9922 4.67281C14.9889 4.36146 15.108 4.1336 15.3781 3.98575C15.5812 3.87443 15.7775 3.74919 15.9789 3.62918C16.7138 3.19085 17.4504 2.756 18.1837 2.31594C18.3968 2.18723 18.4622 1.9785 18.3498 1.80108C18.2307 1.61323 18.0612 1.58018 17.8766 1.6915C16.885 2.28115 15.8882 2.86559 14.905 3.47089C14.519 3.70919 14.3328 4.09707 14.3227 4.5667C14.316 4.84848 14.321 5.13026 14.321 5.41204ZM14.9939 8.53772C14.9939 8.27333 14.9973 8.0072 14.9939 7.74282C14.9872 7.21057 15.0677 7.30449 14.5476 7.28188C14.3546 7.27318 14.3126 7.34276 14.316 7.52887C14.3277 8.10983 14.3194 8.69078 14.3194 9.27347C14.3194 9.77616 14.3194 9.77094 14.811 9.75702C14.9503 9.75354 14.9989 9.70832 14.9956 9.56395C14.9889 9.22129 14.9939 8.88037 14.9939 8.53772ZM16.3983 8.5238C16.3983 8.25941 16.3983 7.99503 16.3983 7.7289C16.3983 7.2784 16.3983 7.28884 15.9671 7.28188C15.7775 7.2784 15.7288 7.34624 15.7322 7.53235C15.7423 8.11331 15.7356 8.69426 15.7356 9.27521C15.7356 9.78833 15.7356 9.78311 16.2306 9.75702C16.3598 9.75006 16.4 9.70658 16.3983 9.57613C16.3933 9.22303 16.3983 8.87342 16.3983 8.5238Z" fill="#1F1F1F"/>
<path d="M6.23168 25.7331C3.57547 25.7487 1.36895 23.4823 1.35553 20.7271C1.34211 17.9424 3.50835 15.662 6.18134 15.6446C8.87446 15.6272 11.0692 17.8797 11.081 20.6749C11.0944 23.4475 8.91641 25.7174 6.23168 25.7331ZM5.25846 20.2836C5.26014 20.2714 5.26517 20.2592 5.26182 20.2557C4.5554 19.5165 3.84562 18.779 3.14088 18.0363C3.05866 17.9493 3.02174 17.998 2.9714 18.0659C2.52842 18.6572 2.25492 19.3252 2.14249 20.0644C2.11397 20.2575 2.16095 20.3131 2.35392 20.3097C3.2684 20.2992 4.18289 20.3062 5.09738 20.3044C5.15107 20.3062 5.21148 20.3288 5.25846 20.2836ZM5.85246 19.7635C5.85246 18.6955 5.84239 17.7075 5.85917 16.7213C5.8642 16.4482 5.75681 16.4308 5.55714 16.4691C5.00173 16.5769 4.47989 16.7735 4.00335 17.0918C3.56037 17.3875 3.56205 17.3875 3.93455 17.7736C4.5554 18.4189 5.17624 19.0643 5.85246 19.7635ZM5.32558 21.0767C4.25169 21.0767 3.24827 21.0785 2.24485 21.075C2.10893 21.075 2.12907 21.155 2.13914 21.242C2.22807 22.0073 2.51332 22.6874 2.96134 23.2997C3.03852 23.4058 3.08718 23.3936 3.1694 23.3084C3.86911 22.5813 4.5705 21.8594 5.32558 21.0767ZM6.61929 19.6852C6.62935 19.687 6.6411 19.6939 6.64445 19.6904C7.35088 18.9634 8.0573 18.2346 8.76707 17.5093C8.856 17.4188 8.81741 17.3753 8.74022 17.3127C8.16804 16.8552 7.52371 16.5752 6.8089 16.4604C6.626 16.4308 6.59076 16.5004 6.59244 16.6743C6.59915 17.6223 6.59579 18.5703 6.59747 19.5165C6.59579 19.5739 6.57566 19.6365 6.61929 19.6852ZM5.82226 21.6855C5.80212 21.6959 5.77527 21.6994 5.76185 21.7151C5.07221 22.4282 4.38592 23.1431 3.69293 23.851C3.58386 23.9624 3.6342 24.0093 3.72481 24.0806C4.29364 24.5311 4.93629 24.7973 5.64104 24.919C5.82897 24.9521 5.85917 24.8773 5.85917 24.7051C5.85246 23.7554 5.85581 22.8057 5.85414 21.8577C5.85078 21.802 5.87427 21.7394 5.82226 21.6855ZM7.18476 20.3062C8.19321 20.3062 9.20166 20.3062 10.2101 20.3062C10.3527 20.3062 10.3125 20.2018 10.3024 20.1253C10.2034 19.393 9.94164 18.732 9.52215 18.1337C9.4198 17.9893 9.35604 17.9754 9.22683 18.1111C8.58082 18.7929 7.92641 19.4643 7.27537 20.1427C7.23845 20.1809 7.17972 20.2088 7.18476 20.3062ZM6.65788 21.6594C6.63774 21.6733 6.61593 21.6872 6.59579 21.7012C6.59579 22.7257 6.59915 23.7502 6.59244 24.7747C6.59076 24.959 6.68808 24.9347 6.79715 24.919C7.48511 24.8112 8.10931 24.5433 8.67478 24.1206C8.81909 24.0128 8.85433 23.9467 8.70499 23.8006C8.27543 23.3779 7.86097 22.9361 7.44316 22.4995C7.17805 22.2212 6.91964 21.9395 6.65788 21.6594ZM7.16462 21.0767C7.18979 21.1289 7.1965 21.1533 7.2116 21.1689C7.89789 21.8838 8.58753 22.5935 9.27214 23.3118C9.3812 23.4266 9.42651 23.371 9.49698 23.2753C9.93493 22.677 10.195 22.0038 10.3074 21.2646C10.336 21.0785 10.2537 21.0732 10.1212 21.075C9.4198 21.0785 8.72009 21.0767 8.0187 21.0767C7.74016 21.0767 7.4633 21.0767 7.16462 21.0767Z" fill="#1F1F1F"/>
</svg>
