<svg width="33" height="32" viewBox="0 0 33 32" fill="none" xmlns="http://www.w3.org/2000/svg">
<g clipPath="url(#clip0_1592_11674)">
<mask id="path-1-inside-1_1592_11674" fill="white">
<path d="M0.5 20.4626C0.5 20.0254 0.5 19.5908 0.5 19.1536C1.525 18.4258 1.9725 17.6771 1.095 16.3838C0.565 15.6036 0.4525 14.3103 1.47 13.8548C2.5875 13.3547 2.4575 12.5719 2.47 11.6844C2.4925 9.88586 3.17 9.17638 4.8875 9.08737C5.655 9.0481 6.4425 9.23921 7.385 8.87269C5.4 6.80969 3.515 4.8488 1.625 2.89053C0.9075 2.15224 0.625 1.31448 1.4 0.492423C2.1825 -0.337488 2.9825 -0.0207077 3.6875 0.720191C5.04 2.14177 6.39 3.56597 7.755 4.97446C8.765 6.01905 9.595 7.38827 11.3325 7.17622C11.5475 7.15004 11.815 7.32282 12.015 7.46943C12.4125 7.76003 12.68 7.70767 13.09 7.39089C13.9575 6.71545 17.5675 6.57145 17.9725 7.35424C18.9375 9.22874 20.1625 9.15544 21.695 8.4093C21.9025 8.3072 22.1925 8.34647 22.4375 8.37788C23.08 8.45904 23.5325 8.17368 23.9675 7.69982C25.2125 6.35154 26.495 5.04253 27.76 3.71258C28.125 3.33035 28.5225 2.91409 29.055 3.25967C29.5725 3.59739 30.2075 4.00842 30.0575 4.76502C29.935 5.37502 30.16 5.75725 30.44 6.19446C31.135 7.27832 31.815 8.37527 32.5025 9.46698C32.5025 9.81518 32.5025 10.166 32.5025 10.5142C31.485 11.6007 30.495 12.7159 29.44 13.7605C28.915 14.2815 28.6925 14.8208 28.705 15.5827C28.7375 17.6745 28.7375 19.7689 28.65 21.8554C28.6275 22.4052 28.555 22.6304 29.17 22.8503C30.0975 23.1775 30.255 25.23 29.365 25.5206C28.3925 25.84 28.2775 26.5862 28.0025 27.3192C27.6225 28.3324 27.275 29.3587 26.91 30.3771C26.5125 31.4819 25.775 32.0055 24.6175 32.0002C18.58 31.9793 12.545 31.9819 6.5075 31.9976C5.355 32.0002 4.625 31.4792 4.2375 30.3561C3.8 29.0864 3.3425 27.8271 2.8775 26.5679C2.75 26.2223 2.715 25.7903 2.2175 25.7222C1.43 25.6149 1.255 25.0389 1.25 24.3059C1.245 23.5467 1.3525 22.9026 2.22 22.7534C2.5025 22.7063 2.665 22.4995 2.6825 22.2193C2.6975 21.9575 2.4775 21.858 2.275 21.8083C1.505 21.6146 1.0575 20.9601 0.5 20.4626ZM11.3125 16.2162C11.095 15.7502 10.96 15.2135 10.65 14.8313C9.5625 13.4883 8.7325 11.7839 6.56 12.0614C5.155 12.2395 5.1025 12.1557 5.5075 13.7291C7.0725 12.8233 7.8475 13.0667 8.6675 14.7632C8.8325 15.1036 8.85 15.5539 9.4 15.4203C10.225 15.2188 10.7025 15.7947 11.2 16.3262C11.585 17.4807 11.5225 18.6824 11.4225 20.0621C12.33 19.4626 13.175 19.0882 14.035 19.3997C14.885 19.706 15.2225 19.439 15.6075 18.6431C16.245 17.321 16.7475 17.3027 17.7675 18.3473C18.2425 18.8342 18.7075 19.3343 19.18 19.8238C19.985 20.6616 21.075 20.7428 21.99 19.9888C23.025 19.1379 24.03 19.1353 25.0325 20.0281C25.2125 20.1877 25.37 20.5071 25.6375 20.2794C25.7625 20.1747 25.79 19.8919 25.7925 19.6877C25.805 18.164 25.7975 16.6377 25.8 15.114C25.8 14.7946 25.7425 14.5224 25.4575 14.3339C24.7225 13.8443 24.0125 13.305 23.2575 12.8468C22.7325 12.5274 21.515 12.7892 21.5125 13.1689C21.505 14.1951 21.12 14.936 20.0825 14.8837C19.0225 14.8287 18.8025 13.9595 18.8025 12.9987C18.8025 12.5955 18.9375 12.0379 18.25 12.1033C17.845 12.1426 17.1425 11.7892 17.345 12.7788C17.3925 13.0118 17.2125 13.1846 16.98 13.2212C16.7425 13.2579 16.595 13.1086 16.4925 12.9018C16.3975 12.7081 16.3225 12.5013 16.2125 12.318C15.4975 11.1137 14.1875 10.6844 12.96 11.2472C11.7925 11.7813 11.2125 13.0327 11.51 14.3784C11.785 15.6167 12.93 16.4309 14.245 16.3497C15.1625 16.2921 15.7875 15.7816 16.265 15.0093C16.445 14.7187 16.6925 14.559 16.9975 14.7658C17.3325 14.9936 17.195 15.3156 17.015 15.5617C16.74 15.9387 16.465 16.3393 16.115 16.6273C14.7825 17.719 13.2025 17.5671 11.3125 16.2162ZM27.555 25.7301C25.04 25.7301 22.7125 25.7641 20.3825 25.7118C19.5475 25.6934 18.955 25.8636 18.6075 26.7406C18.2875 27.5444 17.635 27.8873 16.8025 27.8769C16.0525 27.8664 15.3025 27.8507 14.555 27.8847C13.575 27.9292 12.8425 27.5522 12.455 26.5914C12.17 25.8819 11.6875 25.7196 10.985 25.6934C10.4675 25.6751 9.48 26.1804 9.4925 25.2065C9.5025 24.4394 10.45 24.7824 10.9725 24.7797C16.635 24.7536 22.295 24.7667 27.9575 24.7536C28.3275 24.7536 28.875 24.9473 28.9375 24.2876C29.0025 23.6016 28.4725 23.6933 28.0725 23.6933C19.745 23.688 11.42 23.688 3.0925 23.6933C2.6875 23.6933 2.1875 23.6121 2.2375 24.3007C2.2825 24.9133 2.765 24.7483 3.1025 24.7536C4.185 24.7745 5.27 24.7143 6.3475 24.7824C6.905 24.8164 7.8975 24.4054 7.9225 25.2248C7.95 26.1464 6.955 25.6227 6.42 25.7065C5.81 25.8008 5.1725 25.7641 4.55 25.7196C3.745 25.662 3.625 25.9605 3.9275 26.704C4.35 27.7433 4.6975 28.8167 5.0575 29.8849C5.3075 30.6258 5.7375 31.008 6.535 31.0054C12.5725 30.9871 18.6075 30.9923 24.645 31.0002C25.3025 31.0002 25.765 30.7567 26 30.0891C26.4875 28.7068 26.985 27.3271 27.555 25.7301ZM7.8275 19.9259C7.8975 19.7191 7.945 19.6066 7.975 19.4887C8.0925 19.0096 7.9 18.2635 8.495 18.1536C9.2825 18.0069 8.8775 18.7976 9.0225 19.1693C9.1975 19.6223 9.595 19.3605 9.89 19.4154C10.195 19.4704 10.48 19.4207 10.51 18.9966C10.5625 18.3028 10.63 17.6038 10.335 16.944C10.1375 16.5068 9.81 16.1508 9.365 16.4885C8.36 17.2477 8.1225 16.7346 7.96 15.7397C7.8575 15.1167 7.66 14.3627 6.955 14.2265C6.2025 14.0799 6.025 14.8391 5.8225 15.3811C5.51 16.2162 5.13 16.0827 4.6325 15.5905C4.175 15.1402 3.655 14.7842 3.0525 14.5747C2.6875 14.4491 2.3125 14.347 1.9925 14.6454C1.6175 14.9936 1.73 15.4387 1.8625 15.8549C2.0625 16.4833 2.4 17.0357 2.8425 17.5043C3.365 18.0567 3.3475 18.4415 2.6075 18.7426C2.115 18.9442 1.4725 19.1432 1.515 19.8265C1.565 20.6171 2.295 20.7716 2.88 20.9574C4.14 21.358 4.145 21.3397 3.735 22.7377C4.6275 22.7377 5.4875 22.7403 6.3475 22.7351C6.58 22.7325 6.7475 22.6147 6.75 22.3502C6.755 22.0492 6.54 22.0544 6.3275 22.023C5.9375 21.968 5.27 22.379 5.275 21.5989C5.28 20.9705 5.9575 21.1302 6.365 21.0072C6.5475 20.9522 6.7375 20.926 6.955 20.8815C6.4475 19.4207 5.4525 19.7479 4.4625 19.9129C4.07 19.9783 3.425 20.3029 3.2925 19.6484C3.15 18.9416 3.88 19.1144 4.2575 18.952C4.4725 18.8578 4.755 18.9861 5.1825 18.4808C4.7375 18.0488 4.2425 17.6718 3.7725 17.2634C3.5375 17.0618 3.3625 16.7686 3.605 16.4728C3.9175 16.0958 4.1875 16.3733 4.4475 16.6063C4.9025 17.0121 5.225 17.5959 5.87 17.8787C5.9875 17.321 6.08 16.8629 6.185 16.4073C6.24 16.1743 6.385 16.0303 6.625 16.033C6.965 16.0382 7.03 16.3026 7.02 16.5697C7.005 16.9597 7 17.3655 6.89 17.7321C6.6025 18.6981 6.81 19.4207 7.8275 19.9259ZM27.2075 8.22342C27.5975 8.55853 28.4475 8.09514 28.3825 8.88578C28.3325 9.50625 27.6425 9.35702 27.235 9.29943C25.4725 9.05857 24.9075 10.7027 23.8675 11.5876C23.595 11.818 23.8325 12.0431 24.055 12.195C24.99 12.839 25.925 13.4856 26.8575 14.1297C27.22 14.3784 27.545 14.3574 27.8575 14.0249C28.9975 12.8207 30.165 11.6478 31.2725 10.4147C31.73 9.90681 31.5875 9.47745 30.8825 9.32037C29.9825 9.11878 29.985 9.10569 30.385 8.28625C30.5025 8.04801 30.3575 7.87784 30.25 7.70244C29.915 7.16051 29.575 6.62381 29.25 6.10545C28.5525 6.83587 27.9125 7.49561 27.2075 8.22342ZM13.245 9.95131C12.35 8.802 11.46 7.82548 9.9275 8.0454C9.34 8.12917 9.0175 7.70505 8.6675 7.33591C6.87 5.45618 5.0825 3.56597 3.2725 1.70195C2.9525 1.37208 2.5925 0.678302 2.075 1.25427C1.65 1.72551 2.21 2.10774 2.5175 2.42975C4.2775 4.28593 6.04 6.1421 7.8175 7.97995C8.31 8.48784 8.625 8.96956 8.5875 9.78376C8.525 11.1818 9.3925 12.0536 10.49 12.9018C10.48 12.1243 9.4925 11.9724 9.8875 11.2813C10.23 10.6817 10.615 11.4174 11.1225 11.4829C10.8375 11.0195 10.4425 10.6974 10.81 10.3126C11.165 9.93822 11.4575 10.488 11.825 10.4959C11.8025 10.1032 11.165 9.75496 11.6975 9.3832C12.375 8.91458 12.525 10.1267 13.245 9.95131ZM20.9625 21.4365C21.3975 22.1303 21.7375 22.7796 22.5825 22.7613C23.8225 22.7325 25.0625 22.7586 26.305 22.7482C26.535 22.7456 26.8325 22.8398 26.9525 22.5309C27.08 22.201 26.8875 21.9471 26.68 21.7298C26.4 21.4392 26.03 21.2638 25.6625 21.3947C25.0775 21.6015 24.7925 21.3894 24.4475 20.8868C23.9525 20.1668 23.1475 20.0778 22.66 20.7716C22.185 21.447 21.7 21.5727 20.9625 21.4365ZM13.34 22.9026C13.6425 22.1722 14.8525 23.6043 14.88 22.0204C14.9 20.9574 14.5825 20.2453 13.445 20.2611C12.5 20.2715 11.4475 21.248 11.555 22.1251C11.7075 23.3425 12.705 22.4366 13.34 22.9026ZM28.9225 4.85404C29.0575 4.56082 28.9325 4.41421 28.7925 4.34352C28.49 4.19168 28.3525 4.49275 28.19 4.6603C26.275 6.65523 24.36 8.65278 22.4625 10.666C22.245 10.899 21.685 11.1504 22.1325 11.5692C22.4875 11.9044 22.7 11.3755 22.9075 11.1635C24.7725 9.23659 26.62 7.29403 28.4725 5.35408C28.6475 5.17082 28.8125 4.97708 28.9225 4.85404ZM5.9875 10.056C3.4925 10.056 3.3525 10.2 3.3925 12.5798C3.4025 13.1427 3.31 13.9071 4.06 13.86C4.7 13.8207 4.4075 13.0667 4.3825 12.6688C4.305 11.4567 4.7825 11.0509 5.915 11.064C6.5 11.0718 7.6175 11.5692 7.625 10.6215C7.6325 9.55076 6.475 10.3152 5.9875 10.056ZM9.0375 22.7534C10.52 22.7534 10.775 22.5073 10.775 21.214C10.775 20.4286 10.22 20.46 9.74 20.4338C8.7475 20.3815 7.7 21.2926 7.77 22.1879C7.855 23.2325 8.6925 22.5073 9.0375 22.7534ZM27.7575 21.1459C27.7575 20.6564 27.7575 20.3108 27.7575 19.9678C27.7575 18.7138 27.765 17.4572 27.7525 16.2031C27.75 15.7973 27.8775 15.2921 27.1975 15.3025C26.54 15.3104 26.7725 15.8235 26.765 16.1403C26.7375 17.3524 26.7875 18.5646 26.74 19.7741C26.7125 20.5019 27.0225 20.8763 27.7575 21.1459ZM15.685 25.7301C15.15 25.7301 14.6125 25.6961 14.08 25.7432C13.81 25.7667 13.3325 25.4918 13.315 26.0573C13.305 26.4029 13.555 26.7563 13.895 26.8139C14.995 27.0024 16.1075 26.9867 17.21 26.827C17.61 26.7694 17.905 26.3479 17.865 25.9867C17.8125 25.5102 17.3325 25.7694 17.045 25.7432C16.5925 25.6987 16.1375 25.7301 15.685 25.7301ZM15.77 9.08999C16.14 9.08999 16.515 9.11878 16.8825 9.08213C17.2225 9.0481 17.81 9.2811 17.8375 8.82557C17.8675 8.30458 17.425 7.91711 16.83 7.91973C16.005 7.92235 15.1825 7.91711 14.3575 7.91973C13.965 7.92235 13.525 8.00874 13.5125 8.47475C13.495 9.05071 13.99 9.0769 14.4125 9.08475C14.865 9.0926 15.3175 9.08737 15.77 9.08999ZM15.7625 21.3528C15.77 21.5256 15.78 21.701 15.7875 21.8738C15.8225 22.5047 16.1 22.811 16.745 22.7534C17.495 22.6853 17.1725 22.1879 17.125 21.8057C17.0475 21.18 17.165 20.5962 17.4175 20.0359C17.6975 19.4154 17.255 19.1091 16.8775 18.9102C16.435 18.6772 16.3625 19.206 16.225 19.4757C15.925 20.0568 15.785 20.6904 15.7625 21.3528ZM22.115 9.56123C20.22 9.54552 18.97 11.8677 19.82 13.5851C19.8825 13.7134 20.065 13.8626 20.1875 13.8574C20.52 13.8417 20.565 13.5223 20.5275 13.2788C20.29 11.7001 20.83 10.488 22.115 9.56123ZM15.4325 10.0613C16.3175 11.3703 17.4675 11.1006 18.54 11.0744C18.9 11.0666 19.0125 10.7498 19.01 10.4304C19.0075 10.0665 18.715 10.0665 18.4725 10.0639C17.5025 10.056 16.5325 10.0613 15.4325 10.0613ZM20.5075 22.3083C19.965 21.8423 19.425 21.3711 18.8775 20.9129C18.7025 20.7663 18.56 20.4024 18.3025 20.5962C18.1375 20.7192 18.065 21.0465 18.0425 21.2899C17.9225 22.5571 18.445 22.8738 20.5075 22.3083Z"/>
</mask>
<path d="M0.5 20.4626C0.5 20.0254 0.5 19.5908 0.5 19.1536C1.525 18.4258 1.9725 17.6771 1.095 16.3838C0.565 15.6036 0.4525 14.3103 1.47 13.8548C2.5875 13.3547 2.4575 12.5719 2.47 11.6844C2.4925 9.88586 3.17 9.17638 4.8875 9.08737C5.655 9.0481 6.4425 9.23921 7.385 8.87269C5.4 6.80969 3.515 4.8488 1.625 2.89053C0.9075 2.15224 0.625 1.31448 1.4 0.492423C2.1825 -0.337488 2.9825 -0.0207077 3.6875 0.720191C5.04 2.14177 6.39 3.56597 7.755 4.97446C8.765 6.01905 9.595 7.38827 11.3325 7.17622C11.5475 7.15004 11.815 7.32282 12.015 7.46943C12.4125 7.76003 12.68 7.70767 13.09 7.39089C13.9575 6.71545 17.5675 6.57145 17.9725 7.35424C18.9375 9.22874 20.1625 9.15544 21.695 8.4093C21.9025 8.3072 22.1925 8.34647 22.4375 8.37788C23.08 8.45904 23.5325 8.17368 23.9675 7.69982C25.2125 6.35154 26.495 5.04253 27.76 3.71258C28.125 3.33035 28.5225 2.91409 29.055 3.25967C29.5725 3.59739 30.2075 4.00842 30.0575 4.76502C29.935 5.37502 30.16 5.75725 30.44 6.19446C31.135 7.27832 31.815 8.37527 32.5025 9.46698C32.5025 9.81518 32.5025 10.166 32.5025 10.5142C31.485 11.6007 30.495 12.7159 29.44 13.7605C28.915 14.2815 28.6925 14.8208 28.705 15.5827C28.7375 17.6745 28.7375 19.7689 28.65 21.8554C28.6275 22.4052 28.555 22.6304 29.17 22.8503C30.0975 23.1775 30.255 25.23 29.365 25.5206C28.3925 25.84 28.2775 26.5862 28.0025 27.3192C27.6225 28.3324 27.275 29.3587 26.91 30.3771C26.5125 31.4819 25.775 32.0055 24.6175 32.0002C18.58 31.9793 12.545 31.9819 6.5075 31.9976C5.355 32.0002 4.625 31.4792 4.2375 30.3561C3.8 29.0864 3.3425 27.8271 2.8775 26.5679C2.75 26.2223 2.715 25.7903 2.2175 25.7222C1.43 25.6149 1.255 25.0389 1.25 24.3059C1.245 23.5467 1.3525 22.9026 2.22 22.7534C2.5025 22.7063 2.665 22.4995 2.6825 22.2193C2.6975 21.9575 2.4775 21.858 2.275 21.8083C1.505 21.6146 1.0575 20.9601 0.5 20.4626ZM11.3125 16.2162C11.095 15.7502 10.96 15.2135 10.65 14.8313C9.5625 13.4883 8.7325 11.7839 6.56 12.0614C5.155 12.2395 5.1025 12.1557 5.5075 13.7291C7.0725 12.8233 7.8475 13.0667 8.6675 14.7632C8.8325 15.1036 8.85 15.5539 9.4 15.4203C10.225 15.2188 10.7025 15.7947 11.2 16.3262C11.585 17.4807 11.5225 18.6824 11.4225 20.0621C12.33 19.4626 13.175 19.0882 14.035 19.3997C14.885 19.706 15.2225 19.439 15.6075 18.6431C16.245 17.321 16.7475 17.3027 17.7675 18.3473C18.2425 18.8342 18.7075 19.3343 19.18 19.8238C19.985 20.6616 21.075 20.7428 21.99 19.9888C23.025 19.1379 24.03 19.1353 25.0325 20.0281C25.2125 20.1877 25.37 20.5071 25.6375 20.2794C25.7625 20.1747 25.79 19.8919 25.7925 19.6877C25.805 18.164 25.7975 16.6377 25.8 15.114C25.8 14.7946 25.7425 14.5224 25.4575 14.3339C24.7225 13.8443 24.0125 13.305 23.2575 12.8468C22.7325 12.5274 21.515 12.7892 21.5125 13.1689C21.505 14.1951 21.12 14.936 20.0825 14.8837C19.0225 14.8287 18.8025 13.9595 18.8025 12.9987C18.8025 12.5955 18.9375 12.0379 18.25 12.1033C17.845 12.1426 17.1425 11.7892 17.345 12.7788C17.3925 13.0118 17.2125 13.1846 16.98 13.2212C16.7425 13.2579 16.595 13.1086 16.4925 12.9018C16.3975 12.7081 16.3225 12.5013 16.2125 12.318C15.4975 11.1137 14.1875 10.6844 12.96 11.2472C11.7925 11.7813 11.2125 13.0327 11.51 14.3784C11.785 15.6167 12.93 16.4309 14.245 16.3497C15.1625 16.2921 15.7875 15.7816 16.265 15.0093C16.445 14.7187 16.6925 14.559 16.9975 14.7658C17.3325 14.9936 17.195 15.3156 17.015 15.5617C16.74 15.9387 16.465 16.3393 16.115 16.6273C14.7825 17.719 13.2025 17.5671 11.3125 16.2162ZM27.555 25.7301C25.04 25.7301 22.7125 25.7641 20.3825 25.7118C19.5475 25.6934 18.955 25.8636 18.6075 26.7406C18.2875 27.5444 17.635 27.8873 16.8025 27.8769C16.0525 27.8664 15.3025 27.8507 14.555 27.8847C13.575 27.9292 12.8425 27.5522 12.455 26.5914C12.17 25.8819 11.6875 25.7196 10.985 25.6934C10.4675 25.6751 9.48 26.1804 9.4925 25.2065C9.5025 24.4394 10.45 24.7824 10.9725 24.7797C16.635 24.7536 22.295 24.7667 27.9575 24.7536C28.3275 24.7536 28.875 24.9473 28.9375 24.2876C29.0025 23.6016 28.4725 23.6933 28.0725 23.6933C19.745 23.688 11.42 23.688 3.0925 23.6933C2.6875 23.6933 2.1875 23.6121 2.2375 24.3007C2.2825 24.9133 2.765 24.7483 3.1025 24.7536C4.185 24.7745 5.27 24.7143 6.3475 24.7824C6.905 24.8164 7.8975 24.4054 7.9225 25.2248C7.95 26.1464 6.955 25.6227 6.42 25.7065C5.81 25.8008 5.1725 25.7641 4.55 25.7196C3.745 25.662 3.625 25.9605 3.9275 26.704C4.35 27.7433 4.6975 28.8167 5.0575 29.8849C5.3075 30.6258 5.7375 31.008 6.535 31.0054C12.5725 30.9871 18.6075 30.9923 24.645 31.0002C25.3025 31.0002 25.765 30.7567 26 30.0891C26.4875 28.7068 26.985 27.3271 27.555 25.7301ZM7.8275 19.9259C7.8975 19.7191 7.945 19.6066 7.975 19.4887C8.0925 19.0096 7.9 18.2635 8.495 18.1536C9.2825 18.0069 8.8775 18.7976 9.0225 19.1693C9.1975 19.6223 9.595 19.3605 9.89 19.4154C10.195 19.4704 10.48 19.4207 10.51 18.9966C10.5625 18.3028 10.63 17.6038 10.335 16.944C10.1375 16.5068 9.81 16.1508 9.365 16.4885C8.36 17.2477 8.1225 16.7346 7.96 15.7397C7.8575 15.1167 7.66 14.3627 6.955 14.2265C6.2025 14.0799 6.025 14.8391 5.8225 15.3811C5.51 16.2162 5.13 16.0827 4.6325 15.5905C4.175 15.1402 3.655 14.7842 3.0525 14.5747C2.6875 14.4491 2.3125 14.347 1.9925 14.6454C1.6175 14.9936 1.73 15.4387 1.8625 15.8549C2.0625 16.4833 2.4 17.0357 2.8425 17.5043C3.365 18.0567 3.3475 18.4415 2.6075 18.7426C2.115 18.9442 1.4725 19.1432 1.515 19.8265C1.565 20.6171 2.295 20.7716 2.88 20.9574C4.14 21.358 4.145 21.3397 3.735 22.7377C4.6275 22.7377 5.4875 22.7403 6.3475 22.7351C6.58 22.7325 6.7475 22.6147 6.75 22.3502C6.755 22.0492 6.54 22.0544 6.3275 22.023C5.9375 21.968 5.27 22.379 5.275 21.5989C5.28 20.9705 5.9575 21.1302 6.365 21.0072C6.5475 20.9522 6.7375 20.926 6.955 20.8815C6.4475 19.4207 5.4525 19.7479 4.4625 19.9129C4.07 19.9783 3.425 20.3029 3.2925 19.6484C3.15 18.9416 3.88 19.1144 4.2575 18.952C4.4725 18.8578 4.755 18.9861 5.1825 18.4808C4.7375 18.0488 4.2425 17.6718 3.7725 17.2634C3.5375 17.0618 3.3625 16.7686 3.605 16.4728C3.9175 16.0958 4.1875 16.3733 4.4475 16.6063C4.9025 17.0121 5.225 17.5959 5.87 17.8787C5.9875 17.321 6.08 16.8629 6.185 16.4073C6.24 16.1743 6.385 16.0303 6.625 16.033C6.965 16.0382 7.03 16.3026 7.02 16.5697C7.005 16.9597 7 17.3655 6.89 17.7321C6.6025 18.6981 6.81 19.4207 7.8275 19.9259ZM27.2075 8.22342C27.5975 8.55853 28.4475 8.09514 28.3825 8.88578C28.3325 9.50625 27.6425 9.35702 27.235 9.29943C25.4725 9.05857 24.9075 10.7027 23.8675 11.5876C23.595 11.818 23.8325 12.0431 24.055 12.195C24.99 12.839 25.925 13.4856 26.8575 14.1297C27.22 14.3784 27.545 14.3574 27.8575 14.0249C28.9975 12.8207 30.165 11.6478 31.2725 10.4147C31.73 9.90681 31.5875 9.47745 30.8825 9.32037C29.9825 9.11878 29.985 9.10569 30.385 8.28625C30.5025 8.04801 30.3575 7.87784 30.25 7.70244C29.915 7.16051 29.575 6.62381 29.25 6.10545C28.5525 6.83587 27.9125 7.49561 27.2075 8.22342ZM13.245 9.95131C12.35 8.802 11.46 7.82548 9.9275 8.0454C9.34 8.12917 9.0175 7.70505 8.6675 7.33591C6.87 5.45618 5.0825 3.56597 3.2725 1.70195C2.9525 1.37208 2.5925 0.678302 2.075 1.25427C1.65 1.72551 2.21 2.10774 2.5175 2.42975C4.2775 4.28593 6.04 6.1421 7.8175 7.97995C8.31 8.48784 8.625 8.96956 8.5875 9.78376C8.525 11.1818 9.3925 12.0536 10.49 12.9018C10.48 12.1243 9.4925 11.9724 9.8875 11.2813C10.23 10.6817 10.615 11.4174 11.1225 11.4829C10.8375 11.0195 10.4425 10.6974 10.81 10.3126C11.165 9.93822 11.4575 10.488 11.825 10.4959C11.8025 10.1032 11.165 9.75496 11.6975 9.3832C12.375 8.91458 12.525 10.1267 13.245 9.95131ZM20.9625 21.4365C21.3975 22.1303 21.7375 22.7796 22.5825 22.7613C23.8225 22.7325 25.0625 22.7586 26.305 22.7482C26.535 22.7456 26.8325 22.8398 26.9525 22.5309C27.08 22.201 26.8875 21.9471 26.68 21.7298C26.4 21.4392 26.03 21.2638 25.6625 21.3947C25.0775 21.6015 24.7925 21.3894 24.4475 20.8868C23.9525 20.1668 23.1475 20.0778 22.66 20.7716C22.185 21.447 21.7 21.5727 20.9625 21.4365ZM13.34 22.9026C13.6425 22.1722 14.8525 23.6043 14.88 22.0204C14.9 20.9574 14.5825 20.2453 13.445 20.2611C12.5 20.2715 11.4475 21.248 11.555 22.1251C11.7075 23.3425 12.705 22.4366 13.34 22.9026ZM28.9225 4.85404C29.0575 4.56082 28.9325 4.41421 28.7925 4.34352C28.49 4.19168 28.3525 4.49275 28.19 4.6603C26.275 6.65523 24.36 8.65278 22.4625 10.666C22.245 10.899 21.685 11.1504 22.1325 11.5692C22.4875 11.9044 22.7 11.3755 22.9075 11.1635C24.7725 9.23659 26.62 7.29403 28.4725 5.35408C28.6475 5.17082 28.8125 4.97708 28.9225 4.85404ZM5.9875 10.056C3.4925 10.056 3.3525 10.2 3.3925 12.5798C3.4025 13.1427 3.31 13.9071 4.06 13.86C4.7 13.8207 4.4075 13.0667 4.3825 12.6688C4.305 11.4567 4.7825 11.0509 5.915 11.064C6.5 11.0718 7.6175 11.5692 7.625 10.6215C7.6325 9.55076 6.475 10.3152 5.9875 10.056ZM9.0375 22.7534C10.52 22.7534 10.775 22.5073 10.775 21.214C10.775 20.4286 10.22 20.46 9.74 20.4338C8.7475 20.3815 7.7 21.2926 7.77 22.1879C7.855 23.2325 8.6925 22.5073 9.0375 22.7534ZM27.7575 21.1459C27.7575 20.6564 27.7575 20.3108 27.7575 19.9678C27.7575 18.7138 27.765 17.4572 27.7525 16.2031C27.75 15.7973 27.8775 15.2921 27.1975 15.3025C26.54 15.3104 26.7725 15.8235 26.765 16.1403C26.7375 17.3524 26.7875 18.5646 26.74 19.7741C26.7125 20.5019 27.0225 20.8763 27.7575 21.1459ZM15.685 25.7301C15.15 25.7301 14.6125 25.6961 14.08 25.7432C13.81 25.7667 13.3325 25.4918 13.315 26.0573C13.305 26.4029 13.555 26.7563 13.895 26.8139C14.995 27.0024 16.1075 26.9867 17.21 26.827C17.61 26.7694 17.905 26.3479 17.865 25.9867C17.8125 25.5102 17.3325 25.7694 17.045 25.7432C16.5925 25.6987 16.1375 25.7301 15.685 25.7301ZM15.77 9.08999C16.14 9.08999 16.515 9.11878 16.8825 9.08213C17.2225 9.0481 17.81 9.2811 17.8375 8.82557C17.8675 8.30458 17.425 7.91711 16.83 7.91973C16.005 7.92235 15.1825 7.91711 14.3575 7.91973C13.965 7.92235 13.525 8.00874 13.5125 8.47475C13.495 9.05071 13.99 9.0769 14.4125 9.08475C14.865 9.0926 15.3175 9.08737 15.77 9.08999ZM15.7625 21.3528C15.77 21.5256 15.78 21.701 15.7875 21.8738C15.8225 22.5047 16.1 22.811 16.745 22.7534C17.495 22.6853 17.1725 22.1879 17.125 21.8057C17.0475 21.18 17.165 20.5962 17.4175 20.0359C17.6975 19.4154 17.255 19.1091 16.8775 18.9102C16.435 18.6772 16.3625 19.206 16.225 19.4757C15.925 20.0568 15.785 20.6904 15.7625 21.3528ZM22.115 9.56123C20.22 9.54552 18.97 11.8677 19.82 13.5851C19.8825 13.7134 20.065 13.8626 20.1875 13.8574C20.52 13.8417 20.565 13.5223 20.5275 13.2788C20.29 11.7001 20.83 10.488 22.115 9.56123ZM15.4325 10.0613C16.3175 11.3703 17.4675 11.1006 18.54 11.0744C18.9 11.0666 19.0125 10.7498 19.01 10.4304C19.0075 10.0665 18.715 10.0665 18.4725 10.0639C17.5025 10.056 16.5325 10.0613 15.4325 10.0613ZM20.5075 22.3083C19.965 21.8423 19.425 21.3711 18.8775 20.9129C18.7025 20.7663 18.56 20.4024 18.3025 20.5962C18.1375 20.7192 18.065 21.0465 18.0425 21.2899C17.9225 22.5571 18.445 22.8738 20.5075 22.3083Z" fill="#1F1F1F" stroke="#F8F8F8" strokeWidth="0.2" mask="url(#path-1-inside-1_1592_11674)"/>
<path d="M21.4025 17.0582L21.4027 17.0582C21.4199 16.5686 21.3445 16.1457 21.1507 15.8478C20.9614 15.557 20.6506 15.3723 20.16 15.371C19.6636 15.371 19.3598 15.5616 19.1739 15.8576C18.9828 16.1618 18.9089 16.5894 18.9076 17.0724L21.4025 17.0582ZM21.4025 17.0582L21.4027 17.0646M21.4025 17.0582L21.4027 17.0646M21.4027 17.0646C21.4163 17.5408 21.3704 17.9592 21.1992 18.2679C21.033 18.5677 20.7409 18.7776 20.2238 18.8235L20.2237 18.8235M21.4027 17.0646L20.2237 18.8235M20.2237 18.8235C19.8001 18.8613 19.4779 18.7171 19.2576 18.4271M20.2237 18.8235L19.2576 18.4271M19.2576 18.4271C19.0331 18.1315 18.9064 17.6734 18.9076 17.0724L19.2576 18.4271Z" fill="#1F1F1F" stroke="#F8F8F8" strokeWidth="0.2"/>
</g>
<defs>
<clipPath id="clip0_1592_11674">
<rect width="32" height="32" fill="white" transform="translate(0.5)"/>
</clipPath>
</defs>
</svg>
