<svg width="23" height="22" viewBox="0 0 23 22" fill="none" xmlns="http://www.w3.org/2000/svg">
<path d="M2.31625 22.0002C1.12057 21.4662 0.738165 20.542 0.750277 19.2485C0.798727 13.8873 0.769311 8.52605 0.771042 3.1631C0.772772 1.29742 1.45972 0.707897 3.29909 1.02347C3.54307 1.06508 3.65554 0.96278 3.81646 0.836205C5.37032 -0.38446 7.03492 -0.261353 8.4019 1.17258C9.02656 1.828 9.45223 2.60652 9.70659 3.46653C10.1582 4.9889 11.148 5.96508 12.624 6.48699C13.9079 6.94127 14.9375 7.73539 15.6573 8.89537C15.8701 9.23869 16.102 9.32538 16.4913 9.31845C18.0348 9.28897 18.6802 9.85769 18.81 11.4286C18.8896 12.3944 19.0678 13.0949 20.1839 13.4417C21.4609 13.8387 22.2534 14.9033 22.75 16.15C22.75 16.6095 22.75 17.0672 22.75 17.5267C22.4887 18.0278 22.333 18.5913 21.8762 18.9728C21.7343 19.0907 21.691 19.2207 21.717 19.4184C21.9333 21.0795 21.8346 21.2841 20.5161 22.0002C14.4495 22.0002 8.38287 22.0002 2.31625 22.0002ZM11.5044 21.1263C14.2505 21.1263 16.9966 21.1211 19.7426 21.1298C20.26 21.1315 20.7393 21.0604 20.9729 20.542C21.2238 19.9854 20.838 19.6334 20.4884 19.2832C14.8198 13.6133 9.15115 7.94346 3.48251 2.27361C3.13817 1.92856 2.79729 1.51936 2.23146 1.76037C1.66217 2.00312 1.62584 2.51809 1.62584 3.06253C1.63276 8.53819 1.62757 14.0121 1.63103 19.4878C1.63103 20.7466 2.00824 21.1228 3.26621 21.1246C6.01228 21.128 8.75836 21.1263 11.5044 21.1263ZM14.9444 9.36353C14.2799 8.34746 13.4493 7.68511 12.3938 7.32099C10.5856 6.69679 9.4107 5.48653 8.85007 3.64859C8.56975 2.72962 8.08698 1.91296 7.28409 1.34424C6.49678 0.785922 5.65929 0.668017 4.78892 1.15871C4.2629 1.45521 4.12274 1.73783 4.6453 2.2476C6.57638 4.12368 8.56629 5.95294 10.3312 7.97814C11.5685 9.3982 12.8853 9.93225 14.6589 9.44849C14.7142 9.43462 14.7679 9.41728 14.9444 9.36353ZM18.4501 15.85C18.2701 14.2236 18.1109 12.6614 17.9189 11.1044C17.841 10.4732 17.4222 10.1247 16.7941 10.1629C15.5586 10.2374 14.3249 10.364 13.105 10.468C14.8925 12.2678 16.6332 14.019 18.4501 15.85ZM19.0419 13.8959C19.4727 15.2987 18.874 16.8297 20.2289 17.8024C20.5282 18.0174 20.6563 18.6 21.1373 18.4093C21.6218 18.2168 21.7827 17.7001 21.8589 17.2129C21.9765 16.4604 21.7239 15.7998 21.2307 15.238C20.6961 14.6242 20.0282 14.208 19.0419 13.8959Z" fill="#1F1F1F"/>
<path d="M10.7169 12.438C10.7048 12.6946 10.5145 12.8386 10.3553 12.9998C8.55571 14.8013 6.75614 16.5994 4.95484 18.3992C4.7126 18.6419 4.43228 18.9818 4.10178 18.6298C3.77474 18.2813 4.13639 18.0143 4.37518 17.775C6.17301 15.9717 7.97085 14.1719 9.77215 12.3721C9.95211 12.1918 10.12 11.9612 10.4228 12.0531C10.5958 12.1069 10.7014 12.2456 10.7169 12.438Z" fill="#1F1F1F"/>
<path d="M12.9736 14.7665C12.9459 15.0196 12.7539 15.1618 12.5947 15.3196C11.4215 16.4952 10.25 17.6708 9.0682 18.8359C8.83979 19.0614 8.58543 19.4515 8.22379 19.0631C7.93482 18.7527 8.20648 18.4874 8.43316 18.2603C9.64787 17.0448 10.8608 15.8294 12.079 14.6191C12.2555 14.444 12.4303 14.2151 12.7383 14.3486C12.9148 14.4284 12.9857 14.5758 12.9736 14.7665Z" fill="#1F1F1F"/>
<path d="M3.98957 14.6416C3.78539 14.6208 3.65735 14.567 3.58294 14.4283C3.44624 14.17 3.60024 13.9896 3.76463 13.8249C4.61077 12.9718 5.46037 12.1222 6.31171 11.2709C6.75641 10.8253 7.19938 10.3779 7.65273 9.94099C7.85865 9.74332 8.09916 9.66703 8.32757 9.90978C8.53348 10.1282 8.43139 10.3485 8.26355 10.5184C6.95367 11.8396 5.63687 13.1539 4.31661 14.463C4.21971 14.5584 4.07263 14.5982 3.98957 14.6416Z" fill="#1F1F1F"/>
<path d="M3.10216 10.9815C2.91875 10.9867 2.79243 10.9277 2.71629 10.7942C2.60555 10.5983 2.63497 10.4076 2.79243 10.2498C3.65415 9.38284 4.51586 8.51936 5.38277 7.65761C5.561 7.48075 5.78594 7.4166 5.99531 7.58478C6.21161 7.75991 6.18911 8.02173 6.023 8.19338C5.13014 9.10888 4.21997 10.0036 3.30981 10.9017C3.25443 10.9555 3.15407 10.9642 3.10216 10.9815Z" fill="#1F1F1F"/>
<path d="M12.2154 20.1038C12.0077 20.0934 11.8866 20.0258 11.8157 19.8905C11.7067 19.6859 11.7655 19.5039 11.9195 19.3495C12.7829 18.4843 13.6429 17.6174 14.5133 16.7591C14.6915 16.584 14.9251 16.5354 15.1241 16.7192C15.3283 16.9065 15.2902 17.1544 15.1206 17.3295C14.2451 18.2225 13.3574 19.1016 12.4663 19.9807C12.3936 20.0518 12.2707 20.0778 12.2154 20.1038Z" fill="#1F1F1F"/>
</svg>
