<svg width="26" height="26" viewBox="0 0 26 26" fill="none" xmlns="http://www.w3.org/2000/svg">
<g clipPath="url(#clip0_1592_10659)">
<path d="M9.66549 25.9124C7.57498 25.8798 5.62057 25.5913 3.78049 24.7365C2.64814 24.2085 1.64099 23.5171 0.851608 22.5317C0.710063 22.3521 0.579406 22.1615 0.470526 21.9601C0.225544 21.4865 0.263653 21.04 0.58485 20.6535C0.906048 20.2724 1.37968 20.1254 1.86964 20.2888C2.46304 20.4902 3.05644 20.6971 3.64439 20.9257C6.43173 22.02 8.79988 21.2251 10.9067 19.3143C11.9846 18.3398 12.7414 17.1149 13.4545 15.8573C14.3092 14.3385 15.0279 12.7488 15.8771 11.2299C16.3997 10.2935 16.9659 9.38439 17.7281 8.61678C18.4358 7.89817 19.2633 7.38643 20.2704 7.20133C20.4283 7.17411 20.4719 7.08156 20.5263 6.9618C21.2558 5.33403 22.2466 3.88048 23.4334 2.55758C23.7492 2.20916 24.0649 2.14383 24.4732 2.25271C25.0122 2.3997 25.3715 2.74812 25.5675 3.2653C25.6328 3.43407 25.5784 3.57561 25.4749 3.71716C24.6202 4.9094 23.9179 6.18874 23.3191 7.52797C23.2211 7.74029 23.232 7.87095 23.4062 8.05605C24.5005 9.21562 24.8707 10.6202 24.7563 12.1881C24.544 15.1605 23.2919 17.6756 21.3919 19.8968C19.1708 22.4936 16.4433 24.3555 13.1606 25.368C11.9955 25.7274 10.7924 25.907 9.6546 25.9124H9.66549ZM9.5185 25.1176C10.4059 25.1394 11.2878 25.0468 12.148 24.8236C16.3997 23.7294 19.6879 21.2796 22.0942 17.6375C23.3191 15.7811 23.9996 13.7287 24.0051 11.4694C24.0051 10.8869 23.771 10.544 23.281 10.3153C23.1286 10.2445 22.9652 10.1901 22.8128 10.1193C22.7203 10.0812 22.6549 10.0867 22.6005 10.1847C22.2575 10.8597 21.6478 11.2299 20.9891 11.5293C20.5699 11.7253 20.3086 11.5511 20.3194 11.0829C20.3303 10.6093 20.2596 10.152 20.118 9.70559C20.0799 9.58037 20.0255 9.52593 19.8894 9.52593C19.2742 9.51504 18.6645 9.5586 18.0602 9.6457C17.9077 9.66748 17.7989 9.73825 17.7063 9.86346C17.4722 10.1847 17.2381 10.5113 17.0313 10.8543C16.2146 12.1826 15.5614 13.5926 14.8428 14.97C14.1949 16.2166 13.5144 17.4415 12.6597 18.5576C11.4947 20.0765 10.0956 21.2741 8.22826 21.8458C7.23201 22.1506 6.20853 22.3194 5.16328 22.1833C4.59165 22.1071 4.04181 21.9056 3.4974 21.7151C2.88223 21.4973 2.26705 21.2741 1.65188 21.0509C1.46678 20.9802 1.31979 21.0292 1.19458 21.1707C1.06937 21.3122 1.09659 21.4592 1.18369 21.6171C1.34701 21.9056 1.55389 22.167 1.78254 22.4065C2.37049 23.0217 3.05644 23.5007 3.81316 23.8818C5.60424 24.7855 7.53143 25.0904 9.51305 25.1176H9.5185ZM23.5151 9.53138C23.2429 9.03597 22.938 8.64944 22.5678 8.3228C22.3174 8.0996 22.2902 7.98527 22.4208 7.67496C22.5134 7.4572 22.6059 7.23944 22.7039 7.02168C23.2429 5.80766 23.8907 4.65353 24.6366 3.55384C24.691 3.47762 24.7781 3.41229 24.6964 3.28708C24.495 2.99855 24.1684 2.96044 23.9397 3.21086C22.7638 4.49565 21.8274 5.93288 21.1524 7.53886C21.0435 7.80562 20.8856 7.93083 20.5862 7.9635C19.9819 8.02338 19.4375 8.26292 18.9475 8.62222C18.904 8.65489 18.8332 8.67666 18.8659 8.76377C19.3286 8.7311 19.7968 8.72022 20.265 8.75288C20.4937 8.76921 20.6352 8.87265 20.7223 9.09041C20.8856 9.5096 21.0108 9.93968 21.0653 10.3915C21.0707 10.4569 21.0544 10.6147 21.1959 10.5222C21.5444 10.2935 21.8928 10.0594 21.9472 9.58582C21.9799 9.29728 22.1867 9.16663 22.4753 9.22107C22.8074 9.2864 23.1231 9.40616 23.5151 9.53682V9.53138Z" fill="#F6F6F6"/>
<path d="M13.068 3.31983C12.7142 3.89145 12.5835 4.50118 12.6216 5.14902C12.6488 5.64987 12.8122 6.10717 13.0299 6.55903C13.5308 7.61517 13.6233 8.70942 13.1442 9.78733C12.6869 10.8271 11.8649 11.4369 10.738 11.622C10.2589 11.6982 10.0847 11.5022 10.1718 11.034C10.3841 9.87988 10.1065 8.84552 9.37697 7.93092C9.1211 7.60972 8.80535 7.34841 8.46237 7.1252C6.86183 6.09084 6.13233 4.61551 6.23577 2.72099C6.2521 2.47056 6.30654 2.22014 6.34465 1.96971C6.26299 1.95338 6.22488 2.00782 6.17588 2.04593C4.39569 3.42871 3.99283 5.99285 5.26673 7.8547C5.50627 8.20312 5.71314 8.55154 5.76758 8.98162C5.89279 9.99421 5.28851 10.985 4.32491 11.3389C3.35043 11.6927 2.27796 11.3225 1.72267 10.4352C1.68456 10.3698 1.64101 10.3045 1.6029 10.2392C1.48858 10.2664 1.49947 10.3698 1.47225 10.4406C0.312667 13.7288 1.92954 17.4743 5.1143 18.8952C5.19052 18.9279 5.27218 18.9605 5.34839 18.9986C5.61515 19.1238 5.71314 19.3307 5.61515 19.5485C5.51716 19.7717 5.2994 19.837 5.03264 19.7281C3.99827 19.2926 3.09456 18.6665 2.33785 17.8445C-0.00853002 15.2912 -0.351504 11.5131 1.48858 8.5842C1.53757 8.50799 1.59201 8.42633 1.66279 8.36644C1.79889 8.25212 1.95676 8.24667 2.1092 8.34467C2.2834 8.45899 2.32151 8.6332 2.26163 8.8183C2.17452 9.0905 2.14186 9.36814 2.22352 9.64579C2.38684 10.2011 2.75159 10.5604 3.31777 10.6584C3.90572 10.7618 4.39569 10.5549 4.72777 10.0541C5.05986 9.55324 5.10341 9.03061 4.74955 8.52976C4.07993 7.59339 3.71518 6.56447 3.72063 5.41578C3.72607 3.37427 5.03264 1.46342 6.92172 0.690366C7.12314 0.608706 7.3028 0.58693 7.45523 0.761138C7.60222 0.924459 7.56411 1.09867 7.47156 1.28376C6.48619 3.22184 7.04693 5.27424 8.87068 6.47192C10.3025 7.41374 11.0211 8.74753 11.0047 10.4624C11.0047 10.7673 11.0047 10.7781 11.2878 10.642C12.2405 10.1793 12.774 9.11772 12.6216 8.00169C12.5563 7.53895 12.4038 7.11432 12.2024 6.70057C11.4511 5.11092 11.7941 3.22184 13.0462 1.99693C13.1932 1.85539 13.3457 1.73562 13.5634 1.83361C13.7812 1.9316 13.8084 2.11126 13.7975 2.32357C13.7213 3.40693 14.184 4.17999 15.1204 4.7135C16.3344 5.40489 16.9496 6.47192 17.0095 7.86015C17.0258 8.18679 16.868 8.37189 16.6066 8.36644C16.3562 8.36644 16.2201 8.19223 16.2147 7.87648C16.1874 6.85845 15.7737 6.02551 14.8972 5.51377C14.0153 4.99659 13.3402 4.34331 13.0517 3.33072L13.068 3.31983Z" fill="#F6F6F6"/>
<path d="M7.18852 13.3043C6.85644 13.9848 6.75845 14.6544 6.84555 15.3512C6.94899 16.1515 7.29196 16.8429 7.84725 17.4254C8.04324 17.6323 8.05957 17.8718 7.89625 18.0351C7.71659 18.2093 7.50428 18.193 7.29196 17.9807C5.78397 16.5162 5.60431 13.9086 6.89999 12.2645C7.15586 11.9378 7.49339 11.9814 7.64582 12.3625C8.17389 13.7071 9.1266 14.5673 10.5312 14.9266C10.8142 14.9974 10.9503 15.1933 10.8905 15.4166C10.8251 15.6561 10.6183 15.765 10.3188 15.6888C9.07216 15.373 8.08679 14.6816 7.38451 13.6037C7.33007 13.5166 7.27563 13.4349 7.19397 13.3043H7.18852Z" fill="#F6F6F6"/>
<path d="M17.7497 13.6907C17.7388 13.7234 17.7333 13.7833 17.7116 13.8377C16.9548 15.4328 16.2253 17.0443 15.1692 18.476C15.0875 18.5849 15.0059 18.6938 14.9188 18.7972C14.75 18.9932 14.5377 19.0259 14.358 18.8898C14.1729 18.7482 14.1348 18.5305 14.2927 18.329C15.4033 16.9245 16.1382 15.3022 16.9058 13.7071C16.9494 13.6145 16.9929 13.5165 17.0528 13.4403C17.1617 13.2988 17.3087 13.2443 17.4829 13.3097C17.6517 13.3695 17.7442 13.4948 17.7551 13.7016L17.7497 13.6907Z" fill="#F6F6F6"/>
<path d="M19.4756 10.7946C19.4756 10.9198 19.4321 11.0015 19.3722 11.0777C19.2415 11.241 19.1054 11.4098 18.9693 11.5731C18.806 11.7636 18.5774 11.7909 18.4031 11.6548C18.2398 11.5241 18.2017 11.2954 18.3378 11.1049C18.4794 10.9144 18.6264 10.7293 18.7897 10.5551C18.9094 10.4298 19.0564 10.3863 19.2306 10.4625C19.3885 10.5333 19.4538 10.6639 19.4702 10.8L19.4756 10.7946Z" fill="#F6F6F6"/>
</g>
<defs>
<clipPath id="clip0_1592_10659">
<rect width="25.2929" height="25.2875" fill="white" transform="translate(0.3125 0.625)"/>
</clipPath>
</defs>
</svg>
