<svg width="22" height="16" viewBox="0 0 22 16" fill="none" xmlns="http://www.w3.org/2000/svg">
<path d="M15.6824 0.233412C15.7577 0.316237 15.8565 0.277586 15.9432 0.302684C16.4966 0.461307 16.9087 0.840296 17.2149 1.40853C18.0055 2.8773 18.8042 4.34004 19.5961 5.80781C19.6701 5.94484 19.7593 6.05327 19.8715 6.14312C20.1626 6.37554 20.4544 6.60694 20.7379 6.85191C21.2224 7.27105 21.4886 7.84179 21.494 8.55861C21.5037 9.78844 21.4995 11.0183 21.4966 12.2481C21.4957 12.5824 21.3637 12.729 21.0768 12.732C20.7194 12.7355 20.3615 12.7451 20.0049 12.7275C19.8265 12.7189 19.7643 12.7817 19.7235 12.995C19.512 14.0984 18.9459 14.8403 18.0333 15.1465C17.13 15.4492 16.328 15.1761 15.6614 14.3855C15.319 13.9799 15.1134 13.4789 15.0297 12.9132C15.0083 12.7666 14.9641 12.729 14.8434 12.7295C13.5889 12.735 12.3344 12.7355 11.0794 12.729C10.9529 12.7285 10.915 12.7812 10.8919 12.9202C10.6589 14.3162 9.70172 15.2589 8.52627 15.2589C7.37816 15.2589 6.40626 14.2921 6.18421 12.9152C6.15981 12.7636 6.11355 12.7285 5.99538 12.73C5.44866 12.736 4.90194 12.732 4.35522 12.7325C4.19373 12.7325 4.06798 12.6592 3.99649 12.482C3.93635 12.3334 3.95317 12.1874 4.03434 12.0558C4.12139 11.9148 4.24672 11.8791 4.38718 11.8797C4.92675 11.8822 5.46674 11.8761 6.00631 11.8837C6.13164 11.8857 6.18631 11.844 6.22037 11.6924C6.51056 10.3998 7.44755 9.53394 8.54393 9.53294C9.6256 9.53193 10.5592 10.3943 10.8549 11.6789C10.8898 11.8315 10.9377 11.8862 11.0778 11.8852C12.3323 11.8771 13.5868 11.8786 14.8417 11.8832C14.9721 11.8837 15.0306 11.8515 15.0684 11.6814C15.3577 10.3938 16.3095 9.5249 17.4004 9.53243C18.4841 9.53996 19.4182 10.4064 19.7063 11.6889C19.7412 11.8445 19.7908 11.8887 19.917 11.8832C20.155 11.8726 20.3934 11.8746 20.6319 11.8827C20.745 11.8862 20.7942 11.8525 20.7934 11.704C20.7888 10.6669 20.7938 9.62931 20.7879 8.59174C20.7854 8.1239 20.6092 7.75796 20.2841 7.49543C19.9998 7.26603 19.7134 7.04014 19.4333 6.80372C19.3328 6.71888 19.2277 6.71386 19.115 6.71386C17.3558 6.71487 15.5966 6.71487 13.8374 6.71437C13.4148 6.71437 13.3227 6.60343 13.3223 6.09493C13.3223 4.52226 13.3176 2.94958 13.3269 1.3764C13.3281 1.1465 13.2689 1.10283 13.0901 1.10333C10.6862 1.10985 8.28193 1.10785 5.87804 1.10734C5.79393 1.10734 5.7094 1.10985 5.62613 1.09931C5.42721 1.07371 5.2981 0.911074 5.29516 0.69121C5.29179 0.462311 5.42595 0.292143 5.63538 0.267546C5.71865 0.258009 5.80318 0.261021 5.88729 0.261021C8.36141 0.260519 10.8355 0.261021 13.3096 0.260017C13.3996 0.260017 13.4922 0.281099 13.5792 0.23291C14.2807 0.233412 14.9813 0.233412 15.6824 0.233412ZM18.7714 5.86804C17.9955 4.44295 17.2565 3.06554 16.4974 1.70419C16.2859 1.3252 15.9537 1.13395 15.5626 1.12993C15.121 1.12542 14.6794 1.13646 14.2382 1.1219C14.0708 1.11638 14.028 1.17662 14.0292 1.37289C14.0359 2.78644 14.0368 4.19999 14.0284 5.61304C14.0271 5.82839 14.0835 5.87306 14.2529 5.87206C15.6824 5.86403 17.1119 5.86754 18.5413 5.86754C18.6027 5.86804 18.6641 5.86804 18.7714 5.86804ZM10.2194 12.3887C10.1967 11.2341 9.43298 10.3476 8.49178 10.3818C7.55479 10.4159 6.82597 11.3461 6.8512 12.4745C6.87517 13.5497 7.64983 14.4327 8.55403 14.4161C9.49438 14.399 10.2413 13.4895 10.2194 12.3887ZM15.7144 12.3028C15.6639 13.4348 16.3578 14.3473 17.3196 14.4141C18.2204 14.4769 19.0178 13.6125 19.0746 12.5116C19.1318 11.4008 18.3925 10.4365 17.442 10.3828C16.5328 10.3321 15.7644 11.1859 15.7144 12.3028Z" fill="#1F1F1F"/>
<path d="M0.5 6.70858C0.62154 6.4832 0.795229 6.41844 1.01602 6.41995C2.3824 6.42848 3.74878 6.42396 5.11515 6.42396C5.15721 6.42396 5.19927 6.42196 5.24132 6.42547C5.47431 6.44454 5.62823 6.62074 5.62192 6.86068C5.61561 7.10213 5.46127 7.26728 5.22282 7.26828C4.21391 7.27129 3.205 7.26978 2.19609 7.26978C1.78984 7.26978 1.38316 7.25874 0.976908 7.2738C0.755276 7.28233 0.596727 7.19951 0.5 6.95957C0.5 6.87574 0.5 6.79241 0.5 6.70858Z" fill="#1F1F1F"/>
<path d="M5.06897 4.19992C4.48104 4.19992 3.89353 4.20143 3.30559 4.19942C3.03728 4.19842 2.87579 4.03829 2.87452 3.77977C2.87284 3.52075 3.0356 3.35259 3.30055 3.35209C4.48987 3.35008 5.67962 3.35008 6.86894 3.35209C7.13473 3.35259 7.29202 3.52176 7.28739 3.7863C7.28277 4.0408 7.13011 4.19791 6.87441 4.19942C6.27218 4.20193 5.67036 4.19992 5.06897 4.19992Z" fill="#1F1F1F"/>
<path d="M3.53258 9.00136C3.95188 9.00136 4.37159 8.99885 4.79088 9.00236C5.06298 9.00487 5.21522 9.164 5.21101 9.42904C5.20681 9.68303 5.05835 9.84015 4.79803 9.84115C3.95902 9.84517 3.12044 9.84467 2.28144 9.84115C2.01439 9.84015 1.85289 9.66848 1.85752 9.41247C1.86214 9.15697 2.0228 9.00387 2.29531 9.00186C2.70788 8.99935 3.12044 9.00136 3.53258 9.00136Z" fill="#1F1F1F"/>
</svg>
